<svg fill="none" xmlns="http://www.w3.org/2000/svg" viewBox="0 0 350 330">
  <g id='airship-scene'>
    <animate
      attributeName="opacity"
      id="hideAirshipScene"
      from="1"
      to="0"
      dur="0.2s"    
      begin="2s"
      fill="freeze"
    />
  
    <g id='cabine'>
      <animateTransform
        attributeName="transform"
        type="skewY"
        values="-2; 0; -2;"
        dur="2s"
        repeatCount="indefinite"
      />
      <path d="M175.44,249.28h48.36a13.27,13.27,0,0,0,13-10.65l3.74-18.32H172.36v25.89A3.09,3.09,0,0,0,175.44,249.28Z" fill="none" stroke="#fff" stroke-linecap="round" stroke-linejoin="round" stroke-width="2"/>
      <path d="M235.79,241.69h-9.22a8.31,8.31,0,0,1-8.28-8.31V220.31" fill="none" stroke="#fff" stroke-linecap="round" stroke-miterlimit="10" stroke-width="2"/>
      <path d="M 205.25 242.7 C 206.162 242.695 207.034 242.329 207.677 241.682 C 208.319 241.036 208.68 240.162 208.68 239.25 C 208.68 238.277 208.68 237.303 208.68 236.33 C 208.681 235.878 208.594 235.431 208.422 235.013 C 208.25 234.595 207.998 234.215 207.68 233.895 C 207.361 233.574 206.983 233.32 206.566 233.146 C 206.149 232.972 205.702 232.881 205.25 232.88 C 205.25 232.88 205.25 232.88 205.25 232.88 C 205.25 232.88 205.25 232.88 205.25 232.88 L 203.2 232.88 C 202.288 232.885 201.416 233.251 200.773 233.898 C 200.131 234.544 199.77 235.418 199.77 236.33 L 199.77 239.25 C 199.77 240.162 200.131 241.036 200.773 241.682 C 201.416 242.329 202.288 242.695 203.2 242.7 L 205.25 242.7" fill="none" stroke="#fff" stroke-linecap="round" stroke-linejoin="round" stroke-width="2"/>
      <path d="M185.64,231.88h-2.05a3.45,3.45,0,0,0-3.43,3.45v2.92a3.45,3.45,0,0,0,3.43,3.45h2.05a3.45,3.45,0,0,0,3.43-3.45v-2.92A3.45,3.45,0,0,0,185.64,231.88Z" fill="none" stroke="#fff" stroke-linecap="round" stroke-linejoin="round" stroke-width="2"/>
    </g>

    <g id='tail-backpart'>
      <animateTransform
        attributeName="transform"
        type="translate"
        values="0, -2.5; 0, 2.5; 0, -2.5"
        dur="2s"
        repeatCount="indefinite"
      />
      <path d="M123.23,173.34h9.16a3.29,3.29,0,0,1,3.29,3.3v5.71a3.29,3.29,0,0,1-3.29,3.3H115.57a1.32,1.32,0,0,1-1.32-1.32v-2a9,9,0,0,1,9-9" fill="#068e4d"/>
      <path d="M123.23,173.34h9.16a3.29,3.29,0,0,1,3.29,3.3v5.71a3.29,3.29,0,0,1-3.29,3.3H115.57a1.32,1.32,0,0,1-1.32-1.32v-2A9,9,0,0,1,123.23,173.34Z" fill="none" stroke="#fff" stroke-linecap="round" stroke-linejoin="round" stroke-width="2"/>
      <path d="M123.23,207.39h9.16a3.29,3.29,0,0,0,3.29-3.3v-5.71a3.29,3.29,0,0,0-3.29-3.3H115.57a1.32,1.32,0,0,0-1.32,1.32v2a9,9,0,0,0,9,9" fill="#068e4d"/>
      <path d="M123.23,207.39h9.16a3.29,3.29,0,0,0,3.29-3.3v-5.71a3.29,3.29,0,0,0-3.29-3.3H115.57a1.32,1.32,0,0,0-1.32,1.32v2A9,9,0,0,0,123.23,207.39Z" fill="none" stroke="#fff" stroke-linecap="round" stroke-linejoin="round" stroke-width="2"/>
    </g>

    <g id='tail-frontpart'>
      <animateTransform
        attributeName="transform"
        type="translate"
        values="0, 2.5; 0, -2.5; 0, 2.5"
        dur="2s"
        repeatCount="indefinite"
      />
      <path d="M123.23,173.34h9.16a3.29,3.29,0,0,1,3.29,3.3v5.71a3.29,3.29,0,0,1-3.29,3.3H115.57a1.32,1.32,0,0,1-1.32-1.32v-2a9,9,0,0,1,9-9" fill="#068e4d"/>
      <path d="M123.23,173.34h9.16a3.29,3.29,0,0,1,3.29,3.3v5.71a3.29,3.29,0,0,1-3.29,3.3H115.57a1.32,1.32,0,0,1-1.32-1.32v-2A9,9,0,0,1,123.23,173.34Z" fill="none" stroke="#fff" stroke-linecap="round" stroke-linejoin="round" stroke-width="2"/>
      <path d="M123.23,207.39h9.16a3.29,3.29,0,0,0,3.29-3.3v-5.71a3.29,3.29,0,0,0-3.29-3.3H115.57a1.32,1.32,0,0,0-1.32,1.32v2a9,9,0,0,0,9,9" fill="#068e4d"/>
      <path d="M123.23,207.39h9.16a3.29,3.29,0,0,0,3.29-3.3v-5.71a3.29,3.29,0,0,0-3.29-3.3H115.57a1.32,1.32,0,0,0-1.32,1.32v2A9,9,0,0,0,123.23,207.39Z" fill="none" stroke="#fff" stroke-linecap="round" stroke-linejoin="round" stroke-width="2"/>
    </g>

    <g id='balloon'>
      <path d="M205,227.08c43.38,0,74.86-15.55,74.86-37s-31.48-37-74.86-37c-27.94,0-55.36,13.53-73.46,24.87a14.3,14.3,0,0,0,0,24.21c18.09,11.33,45.52,24.87,73.46,24.87" fill="#068e4d"/>
      <path d="M205,227.08c43.38,0,74.86-15.55,74.86-37s-31.48-37-74.86-37c-27.94,0-55.36,13.53-73.46,24.87a14.3,14.3,0,0,0,0,24.21C149.63,213.54,177.06,227.08,205,227.08Z" fill="none" stroke="#fff" stroke-width="2"/>
      <path d="M127.612 183.901C126.546 185.908 126.028 188.159 126.11 190.43L278.63 190.44V190.07C278.63 170.32 249.8 154.32 204.99 154.32C176.76 154.32 148.92 168.5 132.18 179C130.253 180.204 128.678 181.894 127.612 183.901Z" fill="#36e69a"/>
      <path d="M204.99 225.8C249.14 225.8 277.73 210.28 278.59 190.94H126.18C126.295 192.993 126.9 194.988 127.944 196.759C128.987 198.53 130.44 200.025 132.18 201.12C148.92 211.61 176.76 225.8 204.99 225.8Z" fill="#068e4d"/>
      <path d="M132.18 186C148.92 181.73 176.76 181 204.99 181C249.52 181 278.25 182.43 278.6 190.38C278.6 190.55 278.6 190.72 278.6 190.89C277.75 198.75 249.15 210.06 205 210.06C176.77 210.06 148.93 199.3 132.19 195.06C128.4 194.06 126.4 192.53 126.19 190.93V190.42C126.32 188.73 128.34 187.06 132.29 186.05" fill="#25b774">
        <animate
          attributeName="d"
          values="
            M132.18 186C148.92 181.73 176.76 181 204.99 181C249.52 181 278.25 182.43 278.6 190.38C278.6 190.55 278.6 190.72 278.6 190.89C277.75 198.75 249.15 210.06 205 210.06C176.77 210.06 148.93 199.3 132.19 195.06C128.4 194.06 126.4 192.53 126.19 190.93V190.42C126.32 188.73 128.34 187.06 132.29 186.05;
            M132.18 186C148.92 181.73 176.76 171 204.99 171C249.52 171 278.25 182.43 278.6 190.38C278.6 190.55 278.6 190.72 278.6 190.89C277.75 198.75 249.15 200.06 205 200.06C176.77 200.06 148.93 199.3 132.19 195.06C128.4 194.06 126.4 192.53 126.19 190.93V190.42C126.32 188.73 128.34 187.06 132.29 186.05;
            M132.18 186C148.92 181.73 176.76 181 204.99 181C249.52 181 278.25 182.43 278.6 190.38C278.6 190.55 278.6 190.72 278.6 190.89C277.75 198.75 249.15 210.06 205 210.06C176.77 210.06 148.93 199.3 132.19 195.06C128.4 194.06 126.4 192.53 126.19 190.93V190.42C126.32 188.73 128.34 187.06 132.29 186.05
          "
          dur="2s"
          fill="freeze"
          repeatCount="indefinite"
        />
      </path>
    </g>

    <g id='cloud-left'>
      <g id='cloud-left-top'>
        <animate
          id="cloudLeftAnimation"   
          attributeName="opacity"
          fill="freeze" 
          values="0; 1; 1; 0"
          keyTimes="0; 0.3; 0.7; 1"
          dur="1s"
        />
        <animateTransform
          attributeName="transform"
          type="translate"
          from="180, 0"  
          to="0, 0"
          dur="1s"
          additive="sum"
        />
        <line x1="68.95" y1="107.8" x2="131.86" y2="107.8" fill="none" stroke="#fff" stroke-linecap="round" stroke-miterlimit="10" stroke-width="2"/>
      </g>  
      <g id='cloud-left-bottom'>
        <animate
          attributeName="opacity"
          fill="freeze" 
          dur="1s"
          values="0; 1; 1; 0"
          keyTimes="0; 0.3; 0.7; 1"
        />
        <animateTransform
          attributeName="transform"
          type="translate"
          dur="1s"
          additive="sum"
          from="190, 0"
          to="0, 0"
        />
        <path d="M41.77,97.54H77.06a12.4,12.4,0,1,1,24.8,0h17.93" fill="none" stroke="#fff" stroke-linecap="round" stroke-miterlimit="10" stroke-width="2"/>
      </g>
    </g>

    <g id='cloud-right'>
      <g id='cloud-right-top' style='opacity: 0'>  
        <animate
          attributeName="opacity"
          values="0; 1; 1; 0"
          keyTimes="0; 0.3; 0.7; 1"  
          dur="1s" 
          begin="cloudLeftAnimation.end - 0.3s" 
          fill="freeze"
        />
        <animateTransform
          attributeName="transform"
          type="translate"
          from="0, 0"     
          to="-150, 0"
          dur="1s"
          begin="cloudLeftAnimation.end - 0.3s" 
          additive="sum"
        />
        <path d="M278.75,82.91H251.39a12.4,12.4,0,1,0-24.8,0H208.65" fill="none" stroke="#fff" stroke-linecap="round" stroke-miterlimit="10" stroke-width="2"/>
        <line x1="287.01" y1="82.91" x2="309.21" y2="82.91" fill="none" stroke="#fff" stroke-linecap="round" stroke-miterlimit="10" stroke-width="2"/>
      </g>
      <g style='opacity: 0' id='cloud-right-bottom'> 
        <animate
          attributeName="opacity"
          values="0; 1; 1; 0"
          keyTimes="0; 0.3; 0.7; 1"
          dur="1s"
          begin="cloudLeftAnimation.end - 0.3s" 
          fill="freeze"
        /> 
        <animateTransform 
          attributeName="transform"
          type="translate"
          from="0, 0"
          to="-140, 0"
          dur="1s"
          begin="cloudLeftAnimation.end - 0.3s" 
          additive="sum" 
        />
        <line x1="258.96" y1="93.19" x2="298.74" y2="93.19" fill="none" stroke="#fff" stroke-linecap="round" stroke-miterlimit="10" stroke-width="2"/>
      </g>
    </g>

    <g id='trail'>
      <line x1="106.25" y1="179.49" x2="84.05" y2="179.49" fill="none" stroke="#fff" stroke-linecap="round" stroke-miterlimit="10" stroke-width="2">
        <animate
          attributeName="x2"
          type="scale"
          values="84.05; 100; 84.05"
          dur="0.5s"
          begin="0.2s"
          repeatCount="indefinite"
        />
      </line>
      <line x1="106.25" y1="201.23" x2="84.05" y2="201.23" fill="none" stroke="#fff" stroke-linecap="round" stroke-miterlimit="10" stroke-width="2">
        <animate
          attributeName="x2"
          type="scale"
          values="84.05; 100; 84.05"
          begin="0.3s"
          dur="0.5s"
          repeatCount="indefinite"  
        />
      </line>
      <line x1="106.25" y1="190.98" x2="68.77" y2="190.98" fill="none" stroke="#fff" stroke-linecap="round" stroke-miterlimit="10" stroke-width="2">
        <animate
          attributeName="x2"
          type="scale"
          values="68.77; 85; 68.77"
          dur="0.5s"
          begin="0.1s"
          repeatCount="indefinite"
        />
      </line>
    </g>
  </g>

  <g id='chair-scene'>
    <defs>
      <clipPath id="window">
        <path d="M275,225.43H257.87a17.6,17.6,0,0,1-17.52-17.58V170a17.6,17.6,0,0,1,17.52-17.58H275A17.6,17.6,0,0,1,292.51,170v37.83A17.61,17.61,0,0,1,275,225.43Z"/>
      </clipPath>
    </defs>

    <g id='skis' opacity="0">
      <animate
        attributeName="opacity"
        from="0"
        to="1"
        begin="chairFadeInAnimation.begin + 0.1s"
        dur="0.2s"
        fill="freeze"
      />
      <animateTransform
        attributeName="transform"
        type="translate"
        from="-30, 0"
        to="0, 0"
        dur="0.2s"
        begin="chairFadeInAnimation.begin + 0.1s"
        additive="sum"
      />
      <animateTransform
        id="skisRotateAnimation"
        attributeName="transform"
        type="rotate"
        values="0 105 350; 0.5 105 350; 0 105 350"
        dur="1s"
        begin="4s; skisRotateAnimation.end + 4s"
        additive="sum"
      />
      <path d="M91.14,327.79a2.2,2.2,0,0,1-2-2.36l13.66-193.17c1.1-15.49-4.8-21.92-8.75-24.47a1.35,1.35,0,0,1,.53-2.45C103,104,122.18,104,120,134.19L106.43,326.67a2.2,2.2,0,0,1-2.35,2Z" fill="#fff"/>
      <path d="M124.5,328.17a2.2,2.2,0,0,1-2.17-2.23l2.24-193.63c0.19-15.53-6.07-21.61-10.16-23.91a1.35,1.35,0,0,1,.39-2.47c8.36-1.9,27.49-3,27.15,27.28l-2.25,192.93a2.2,2.2,0,0,1-2.22,2.18Z" fill="#fff"/>
    </g>
    <g id='window'>
      <path opacity="0" d="M275,225.43H257.87a17.6,17.6,0,0,1-17.52-17.58V170a17.6,17.6,0,0,1,17.52-17.58H275A17.6,17.6,0,0,1,292.51,170v37.83A17.61,17.61,0,0,1,275,225.43Z" fill="none" stroke="#fff" stroke-width="2">
        <animate
          attributeName="d"
          from="M 205.25 242.7 C 206.162 242.695 207.034 242.329 207.677 241.682 C 208.319 241.036 208.68 240.162 208.68 239.25 C 208.68 238.277 208.68 237.303 208.68 236.33 C 208.681 235.878 208.594 235.431 208.422 235.013 C 208.25 234.595 207.998 234.215 207.68 233.895 C 207.361 233.574 206.983 233.32 206.566 233.146 C 206.149 232.972 205.702 232.881 205.25 232.88 C 205.25 232.88 205.25 232.88 205.25 232.88 C 205.25 232.88 205.25 232.88 205.25 232.88 L 203.2 232.88 C 202.288 232.885 201.416 233.251 200.773 233.898 C 200.131 234.544 199.77 235.418 199.77 236.33 L 199.77 239.25 C 199.77 240.162 200.131 241.036 200.773 241.682 C 201.416 242.329 202.288 242.695 203.2 242.7 L 205.25 242.7"
          to="M 275 225.43 C 275 225.43 275 225.43 275 225.43 C 275 225.43 275 225.43 275 225.43 C 279.651 225.404 284.103 223.538 287.384 220.24 C 290.665 216.943 292.508 212.481 292.51 207.83 C 292.51 203.627 292.51 199.423 292.51 195.22 C 292.51 191.017 292.51 186.813 292.51 182.61 C 292.51 178.407 292.51 174.203 292.51 170 C 292.505 165.351 290.661 160.893 287.38 157.6 C 284.099 154.306 279.649 152.444 275 152.42 L 257.87 152.42 C 253.22 152.441 248.767 154.302 245.484 157.596 C 242.201 160.89 240.355 165.349 240.35 170 L 240.35 207.85 C 240.355 212.501 242.201 216.96 245.484 220.254 C 248.767 223.548 253.22 225.409 257.87 225.43 L 275 225.43"
          begin="hideAirshipScene.end - 0.2s"
          dur="0.2s"
          fill="freeze"
        />
        <animate
          attributeName="opacity"
          from="0"
          to="1"
          dur="0.1s"
          begin="hideAirshipScene.end - 0.2s"
          fill="freeze"
          additive="sum"
        />
      </path>
    </g>

    <g id='clouds' clip-path="url(#window)">
      <g transform="translate(220 160)" opacity="0">
        <animate
          attributeName="opacity"
          from="0"
          to="1"
          dur="0.2s"
          begin="chairFadeInAnimation.end"
          fill="freeze"
        />
        <g>
          <animateTransform
            id="windowCloudTransformAnimation"
            attributeName="transform"
            type="translate"
            from="100 0"
            to="-100 0"
            dur="2s"
            begin="chairFadeInAnimation.end; windowCloudTransformAnimation.end + 3s"
            fill="freeze"
          />
          <line x1="28.18" y1="38.34" x2="91.09" y2="38.34" fill="none" stroke="#fff" stroke-linecap="round" stroke-miterlimit="10" stroke-width="2"/>
          <path d="M41.77,97.54H77.06a12.4,12.4,0,1,1,24.8,0h17.93" transform="translate(-40.77 -69.46)" fill="none" stroke="#fff" stroke-linecap="round" stroke-miterlimit="10" stroke-width="2"/>
        </g>
        <g>
          <animateTransform
            attributeName="transform"
            type="translate"
            from="-100 0"
            to="-300 0"
            dur="2s"
            begin="windowCloudTransformAnimation.end"
            fill="freeze"
          />
          <line x1="218.19" y1="23.72" x2="257.97" y2="23.72" fill="none" stroke="#fff" stroke-linecap="round" stroke-miterlimit="10" stroke-width="2"/>
          <path d="M278.75,82.91H251.39a12.4,12.4,0,1,0-24.8,0H208.65" transform="translate(-40.77 -69.46)" fill="none" stroke="#fff" stroke-linecap="round" stroke-miterlimit="10" stroke-width="2"/>
          <line x1="246.24" y1="13.45" x2="268.43" y2="13.45" fill="none" stroke="#fff" stroke-linecap="round" stroke-miterlimit="10" stroke-width="2"/>        
        </g>
      </g>
    </g>

    <g id='chair' opacity="0">
      <animate
        id="chairFadeInAnimation"
        attributeName="opacity"
        from="0"
        to="1"
        dur="0.2s"
        begin="hideAirshipScene.end + 0.3s"
        fill="freeze"
      />
      <animateTransform
        attributeName="transform"
        type="translate"
        from="-30, 0"
        to="0, 0"
        dur="0.2s"
        begin="2.3s"
        additive="sum"
      />
      <path d="M257.5,259.82H196.76V245.63h55.09a9.92,9.92,0,0,1,9.9,9.93,4.26,4.26,0,0,1-4.25,4.25" fill="#a67ee5"/>
      <path d="M257.5,259.82H196.76V245.63h55.09a9.92,9.92,0,0,1,9.9,9.93A4.26,4.26,0,0,1,257.5,259.82Z" fill="none" stroke="#fff" stroke-miterlimit="10" stroke-width="2"/>
      <polygon points="185.47 328.31 171.5 328.31 165.19 286.72 179.16 286.72 185.47 328.31" fill="#a67ee5"/>
      <polygon points="185.47 328.31 171.5 328.31 165.19 286.72 179.16 286.72 185.47 328.31" fill="none" stroke="#fff" stroke-miterlimit="10" stroke-width="2"/>
      <polygon points="235.03 328.31 221.06 328.31 214.76 286.72 228.72 286.72 235.03 328.31" fill="#a67ee5"/>
      <polygon points="235.03 328.31 221.06 328.31 214.76 286.72 228.72 286.72 235.03 328.31" fill="none" stroke="#fff" stroke-miterlimit="10" stroke-width="2"/>
      <path d="M281.33,272.45H225.44a5.59,5.59,0,0,1-5.53-4.77l-10.86-72.24a17.71,17.71,0,0,0-12.49-31.31H141.48L141.16,267l15.77,23.35,47.19,8.39a12.3,12.3,0,0,0,4.22.75h73a13.53,13.53,0,0,0,0-27.06" fill="#a67ee5"/>
      <path d="M281.33,272.45H225.44a5.59,5.59,0,0,1-5.53-4.77l-10.86-72.24a17.71,17.71,0,0,0-12.49-31.31H141.48L141.16,267l15.77,23.35,47.19,8.39a12.3,12.3,0,0,0,4.22.75h73A13.53,13.53,0,0,0,281.33,272.45Z" fill="none" stroke="#fff" stroke-miterlimit="10" stroke-width="2"/>
      <path d="M162.42,267.69l-10.86-72.24a17.71,17.71,0,1,0-29-13.61,18,18,0,0,0,.79,5.25L138.65,289a12.36,12.36,0,0,0,12.21,10.54h73a13.53,13.53,0,0,0,0-27.05H167.95a5.62,5.62,0,0,1-5.53-4.78" fill="#a67ee5"/>
      <path d="M162.42,267.69l-10.86-72.24a17.71,17.71,0,1,0-29-13.61,18,18,0,0,0,.79,5.25L138.65,289a12.36,12.36,0,0,0,12.21,10.54h73a13.53,13.53,0,0,0,0-27.05H167.95A5.62,5.62,0,0,1,162.42,267.69Z" fill="none" stroke="#fff" stroke-miterlimit="10" stroke-width="2"/>
      <path d="M206.26,259.82h-72l-2.13-14.19H200.6a9.92,9.92,0,0,1,9.9,9.93,4.26,4.26,0,0,1-4.25,4.25" fill="#a67ee5"/>
      <path d="M206.26,259.82h-72l-2.13-14.19H200.6a9.92,9.92,0,0,1,9.9,9.93A4.26,4.26,0,0,1,206.26,259.82Z" fill="none" stroke="#fff" stroke-miterlimit="10" stroke-width="2"/>
      <line x1="151.57" y1="195.44" x2="209.05" y2="195.44" fill="none" stroke="#fff" stroke-linecap="round" stroke-miterlimit="10" stroke-width="2"/>
    </g>

    <g id='leaf' opacity="0">
      <animate
        attributeName="opacity"
        from="0"
        to="1"
        dur="0.2s"
        begin="chairFadeInAnimation.begin + 0.2s"
        fill="freeze"
      />
      <animateTransform
        attributeName="transform"
        type="translate"
        from="-30, 0"
        to="0, 0"
        dur="0.2s"
        begin="chairFadeInAnimation.begin + 0.2s"
        additive="sum"
      />
      <animateTransform
        id="leafRotateAnimation"
        attributeName="transform"
        type="rotate"
        values="0 105 350; -2 105 350; 0 105 350"
        dur="4s"
        begin="4s; leafRotateAnimation.end + 4s"
        additive="sum"
      />
      <path d="M79.18,194A131,131,0,0,1,94.77,220.9a255,255,0,0,1-20.08-23.55,259,259,0,0,1-17.07-25.88A131.72,131.72,0,0,1,79.18,194" fill="#36e69a"/>
      <path d="M80.94,214.39a127.19,127.19,0,0,1,22.8,20.49A242.09,242.09,0,0,1,77.9,219.17a235.86,235.86,0,0,1-23.42-18.7,119.82,119.82,0,0,1,26.46,13.92" fill="#36e69a"/>
      <path d="M93.66,205.48a258.38,258.38,0,0,0,10.08,29.39,125.63,125.63,0,0,0-4.5-30.52,135.9,135.9,0,0,0-12.06-29.44,260.33,260.33,0,0,0,6.47,30.57" fill="#36e69a"/>
      <path d="M107.32,213.52a250.14,250.14,0,0,0,2.06,30.67,119.93,119.93,0,0,0,3.76-30.05,131.24,131.24,0,0,0-4-31.36,238.1,238.1,0,0,0-1.87,30.74" fill="#25b774"/>
      <path d="M83.08,229.56a121.93,121.93,0,0,1,26.29,14.64A225.91,225.91,0,0,1,81.21,235a228.11,228.11,0,0,1-26.37-12.69,113.61,113.61,0,0,1,28.25,7.29" fill="#25b774"/>
      <path d="M88.06,243.83A118.11,118.11,0,0,1,115.62,255a211,211,0,0,1-28.78-5.6,220.87,220.87,0,0,1-27.42-9.33,114,114,0,0,1,28.65,3.73" fill="#25b774"/>
      <path d="M118.71,224.79a238,238,0,0,0-3.1,30.25,117.11,117.11,0,0,0,8.82-28.54,127.44,127.44,0,0,0,1.42-31.19,213.92,213.92,0,0,0-7.15,29.48" fill="#25b774"/>
      <path d="M98.86,262a118.24,118.24,0,0,1,27.07,12.34,212.3,212.3,0,0,1-28.53-6.79,220.78,220.78,0,0,1-27-10.45A114.06,114.06,0,0,1,98.86,262" fill="#068e4d"/>
      <path d="M130.27,244.29a236.56,236.56,0,0,0-4.34,30.1,116.94,116.94,0,0,0,10-28.16,127.42,127.42,0,0,0,2.71-31.1,214.43,214.43,0,0,0-8.36,29.16" fill="#068e4d"/>
      <path d="M108.9,280.69a118.21,118.21,0,0,1,26.54,13.47,213.62,213.62,0,0,1-28.23-8,221.65,221.65,0,0,1-26.55-11.57,113.82,113.82,0,0,1,28.24,6.08" fill="#068e4d"/>
      <path d="M141,264.26a236.09,236.09,0,0,0-5.58,29.9,117.46,117.46,0,0,0,11.15-27.73,127.2,127.2,0,0,0,4-31A214.24,214.24,0,0,0,141,264.26" fill="#068e4d"/>
      <path d="M92.62,217.67A529.26,529.26,0,0,1,149.48,328" fill="none" stroke="#36e69a" stroke-linecap="round" stroke-linejoin="round" stroke-width="2"/>
    </g>
  </g>

  <!-- floor -->
  <g>
    <path d="M289.94,327.88H244.88L212.8,296.58a1.89,1.89,0,0,0-2.44,0l-10.2,10.23a1.72,1.72,0,0,1-2.25,0l-19-20.17a2.4,2.4,0,0,0-3.1,0l-26.42,25.64a1.71,1.71,0,0,1-2.25,0l-2.63-2.92a1.71,1.71,0,0,0-2.31,0L124.63,329H80.78" fill="none" stroke="#fff" stroke-linecap="round" stroke-miterlimit="10" stroke-width="2">
      <animate
        attributeName="d"
        values="
          M 289.94 327.88 L 244.88 327.88 L 212.8 296.58 C 212.459 296.292 212.027 296.134 211.58 296.134 C 211.133 296.134 210.701 296.292 210.36 296.58 L 200.16 306.81 C 199.848 307.08 199.448 307.229 199.035 307.229 C 198.622 307.229 198.222 307.08 197.91 306.81 L 178.91 286.64 C 178.477 286.274 177.927 286.072 177.36 286.072 C 176.793 286.072 176.243 286.274 175.81 286.64 L 149.39 312.28 C 149.079 312.552 148.679 312.702 148.265 312.702 C 147.851 312.702 147.451 312.552 147.14 312.28 L 144.51 309.36 C 144.195 309.071 143.782 308.911 143.355 308.911 C 142.928 308.911 142.515 309.071 142.2 309.36 L 124.63 329 L 80.78 329;
          M 290.94 329 L 274.857 329 L 258.774 329 C 253.413 329 248.052 329 242.691 329 C 237.33 329 231.97 329 226.609 329 L 210.526 329 C 205.165 329 199.804 329 194.443 329 C 189.082 329 183.721 329 178.36 329 L 169.58 329 C 166.653 329 163.727 329 160.8 329 C 157.873 329 154.947 329 152.02 329 L 143.24 329 C 140.313 329 137.387 329 134.46 329 C 131.533 329 128.607 329 125.68 329 L 116.9 329 C 113.973 329 111.047 329 108.12 329 C 105.193 329 102.267 329 99.34 329 L 90.56 329 L 81.78 329
        "
        dur="0.2s"
        begin="hideAirshipScene.end - 0.2s"
        fill="freeze"
      />
    </path>
  </g>
</svg>
